<?xml version="1.0" encoding="utf-8"?>
<svg width="1659.5" height="318" viewBox="0 0 1659.5 318" fill="none" stroke="none" version="1.1" xmlns:xlink="http://www.w3.org/1999/xlink" xmlns="http://www.w3.org/2000/svg">
  <defs>
    <linearGradient id="gradient_1" gradientUnits="userSpaceOnUse" x1="130.5" y1="0" x2="130.5" y2="229">
      <stop offset="0" stop-color="#63657E" />
      <stop offset="1" stop-color="#313242" />
    </linearGradient>
    <filter color-interpolation-filters="sRGB" x="-259" y="-227" width="261" height="229" id="filter_2">
      <feFlood flood-opacity="0" result="BackgroundImageFix_1" />
      <feColorMatrix type="matrix" values="0 0 0 0 0 0 0 0 0 0 0 0 0 0 0 0 0 0 1 0" in="SourceAlpha" />
      <feOffset dx="10" dy="5" />
      <feGaussianBlur stdDeviation="6" />
      <feColorMatrix type="matrix" values="0 0 0 0 0.137 0 0 0 0 0.078 0 0 0 0 0.275 0 0 0 0.4 0" />
      <feBlend mode="normal" in2="BackgroundImageFix_1" result="Shadow_2" />
      <feBlend mode="normal" in="SourceGraphic" in2="Shadow_2" result="Shape_3" />
    </filter>
    <linearGradient id="gradient_3" gradientUnits="userSpaceOnUse" x1="62" y1="0" x2="62" y2="110.087">
      <stop offset="0" stop-color="#FFFFFF" />
      <stop offset="1" stop-color="#8C80A2" />
    </linearGradient>
    <filter color-interpolation-filters="sRGB" x="-122" y="-108.087" width="124" height="110.087" id="filter_4">
      <feFlood flood-opacity="0" result="BackgroundImageFix_1" />
      <feColorMatrix type="matrix" values="0 0 0 0 0 0 0 0 0 0 0 0 0 0 0 0 0 0 1 0" in="SourceAlpha" />
      <feOffset dx="10" dy="5" />
      <feGaussianBlur stdDeviation="6" />
      <feColorMatrix type="matrix" values="0 0 0 0 0.137 0 0 0 0 0.078 0 0 0 0 0.275 0 0 0 0.4 0" />
      <feBlend mode="normal" in2="BackgroundImageFix_1" result="Shadow_2" />
      <feBlend mode="normal" in="SourceGraphic" in2="Shadow_2" result="Shape_3" />
    </filter>
    <linearGradient id="gradient_5" gradientUnits="userSpaceOnUse" x1="164" y1="0" x2="164" y2="288">
      <stop offset="0" stop-color="#63657E" />
      <stop offset="1" stop-color="#47495D" />
    </linearGradient>
    <filter color-interpolation-filters="sRGB" x="-326" y="-286" width="328" height="288" id="filter_6">
      <feFlood flood-opacity="0" result="BackgroundImageFix_1" />
      <feColorMatrix type="matrix" values="0 0 0 0 0 0 0 0 0 0 0 0 0 0 0 0 0 0 1 0" in="SourceAlpha" />
      <feOffset dx="10" dy="5" />
      <feGaussianBlur stdDeviation="6" />
      <feColorMatrix type="matrix" values="0 0 0 0 0.137 0 0 0 0 0.078 0 0 0 0 0.275 0 0 0 0.4 0" />
      <feBlend mode="normal" in2="BackgroundImageFix_1" result="Shadow_2" />
      <feBlend mode="normal" in="SourceGraphic" in2="Shadow_2" result="Shape_3" />
    </filter>
    <linearGradient id="gradient_7" gradientUnits="userSpaceOnUse" x1="102" y1="0" x2="102" y2="179">
      <stop offset="0" stop-color="#8F92B0" />
      <stop offset="1" stop-color="#47495D" />
    </linearGradient>
    <filter color-interpolation-filters="sRGB" x="-202" y="-177" width="204" height="179" id="filter_8">
      <feFlood flood-opacity="0" result="BackgroundImageFix_1" />
      <feColorMatrix type="matrix" values="0 0 0 0 0 0 0 0 0 0 0 0 0 0 0 0 0 0 1 0" in="SourceAlpha" />
      <feOffset dx="10" dy="5" />
      <feGaussianBlur stdDeviation="6" />
      <feColorMatrix type="matrix" values="0 0 0 0 0.137 0 0 0 0 0.078 0 0 0 0 0.275 0 0 0 0.4 0" />
      <feBlend mode="normal" in2="BackgroundImageFix_1" result="Shadow_2" />
      <feBlend mode="normal" in="SourceGraphic" in2="Shadow_2" result="Shape_3" />
    </filter>
    <linearGradient id="gradient_9" gradientUnits="userSpaceOnUse" x1="68.055" y1="61.025" x2="68.055" y2="122.049">
      <stop offset="0" stop-color="#FFFFFF" />
      <stop offset="1" stop-color="#8A7CA3" />
    </linearGradient>
    <filter color-interpolation-filters="sRGB" x="-134.11" y="-120.049" width="136.11" height="122.049" id="filter_10">
      <feFlood flood-opacity="0" result="BackgroundImageFix_1" />
      <feColorMatrix type="matrix" values="0 0 0 0 0 0 0 0 0 0 0 0 0 0 0 0 0 0 1 0" in="SourceAlpha" />
      <feOffset dx="10" dy="5" />
      <feGaussianBlur stdDeviation="6" />
      <feColorMatrix type="matrix" values="0 0 0 0 0.137 0 0 0 0 0.078 0 0 0 0 0.275 0 0 0 0.4 0" />
      <feBlend mode="normal" in2="BackgroundImageFix_1" result="Shadow_2" />
      <feBlend mode="normal" in="SourceGraphic" in2="Shadow_2" result="Shape_3" />
    </filter>
    <linearGradient id="gradient_11" gradientUnits="userSpaceOnUse" x1="51" y1="0" x2="51" y2="89.491">
      <stop offset="0" stop-color="#FFFFFF" />
      <stop offset="1" stop-color="#B2A2CE" />
    </linearGradient>
    <filter color-interpolation-filters="sRGB" x="-100" y="-87.491" width="102" height="89.491" id="filter_12">
      <feFlood flood-opacity="0" result="BackgroundImageFix_1" />
      <feColorMatrix type="matrix" values="0 0 0 0 0 0 0 0 0 0 0 0 0 0 0 0 0 0 1 0" in="SourceAlpha" />
      <feOffset dx="10" dy="5" />
      <feGaussianBlur stdDeviation="6" />
      <feColorMatrix type="matrix" values="0 0 0 0 0.137 0 0 0 0 0.078 0 0 0 0 0.275 0 0 0 0.4 0" />
      <feBlend mode="normal" in2="BackgroundImageFix_1" result="Shadow_2" />
      <feBlend mode="normal" in="SourceGraphic" in2="Shadow_2" result="Shape_3" />
    </filter>
    <filter color-interpolation-filters="sRGB" x="-1125" y="-226" width="1127" height="228" id="filter_13">
      <feFlood flood-opacity="0" result="BackgroundImageFix_1" />
      <feBlend mode="normal" in="SourceGraphic" in2="BackgroundImageFix_1" result="Shape_2" />
      <feColorMatrix type="matrix" values="0 0 0 0 0 0 0 0 0 0 0 0 0 0 0 0 0 0 1 0" in="SourceAlpha" result="HardAlpha_3" />
      <feOffset dx="0" dy="2" />
      <feGaussianBlur stdDeviation="2.4" />
      <feComposite operator="arithmetic" k2="-1" k3="1" in2="HardAlpha_3" />
      <feColorMatrix type="matrix" values="0 0 0 0 0.294 0 0 0 0 0.208 0 0 0 0 0.494 0 0 0 0.439 0" />
      <feBlend mode="normal" in2="Shape_2" result="InnerShadow_4" />
    </filter>
  </defs>
  <g id="SingleElement">
    <g id="Group" transform="translate(5 10)">
      <path id="Triangle" d="M132.811 7.16385L243.599 201.574C249.043 211.125 244.543 218.869 233.549 218.869L12.3616 218.869C1.36765 218.869 -3.13202 211.125 2.31125 201.574L113.099 7.16385C118.543 -2.38795 127.368 -2.38795 132.811 7.16385Z" style="fill:url(#gradient_1);fill-rule:evenodd;filter:url(#filter_2);mix-blend-mode:normal;" transform="translate(266 59)" />
      <path id="Triangle Intersect" d="M123.852 97.4188L72.368 7.16216C66.9207 -2.38738 58.089 -2.38738 52.6418 7.16216L0 99.4482C3.74817 97.2709 20.6429 88.8107 35.1741 103.555C47.689 116.254 56.266 108.204 66.8125 98.3066C70.131 95.1923 73.6444 91.895 77.5369 89.0035C85.5362 83.0612 94.3999 90.0595 102.576 96.5146C111.022 103.183 118.734 109.272 124 99.9141L123.852 97.4188Z" style="fill:url(#gradient_3);fill-rule:evenodd;filter:url(#filter_4);mix-blend-mode:normal;" transform="translate(334 83)" />
      <path id="Triangle" d="M166.309 7.16516L310.608 260.569C316.048 270.122 311.546 277.867 300.552 277.867L12.3647 277.867C1.37074 277.867 -3.13142 270.122 2.30879 260.569L146.608 7.16516C152.048 -2.38839 160.869 -2.38839 166.309 7.16516Z" style="fill:url(#gradient_5);fill-rule:evenodd;filter:url(#filter_6);mix-blend-mode:normal;" transform="translate(102 0)" />
      <path id="Triangle" d="M104.311 7.16397L186.6 151.573C192.043 161.125 187.543 168.869 176.549 168.869L12.3618 168.869C1.36792 168.869 -3.13198 161.125 2.31104 151.573L84.6001 7.16396C90.0432 -2.38799 98.868 -2.38799 104.311 7.16397Z" style="fill:url(#gradient_7);fill-rule:evenodd;filter:url(#filter_8);mix-blend-mode:normal;" transform="translate(0 109)" />
      <path id="Triangle Intersect" d="M135.948 108.12L78.4595 7.16516C73.0193 -2.38839 64.199 -2.38839 58.7587 7.16516L0 110.351C4.11423 107.957 22.659 98.655 38.6092 114.867C52.3463 128.83 61.7609 119.979 73.3374 109.096C76.98 105.672 80.8366 102.046 85.1092 98.8669C93.8897 92.3331 103.619 100.028 112.593 107.126C121.865 114.458 130.33 121.153 136.11 110.864L135.948 108.12Z" style="fill:url(#gradient_9);fill-rule:evenodd;filter:url(#filter_10);mix-blend-mode:normal;" transform="translate(198 22)" />
      <path id="Triangle Intersect" d="M101.878 78.991L61.2221 7.1754C55.806 -2.3918 47.0246 -2.3918 41.6084 7.1754L0 80.673C3.08318 78.8684 16.9805 71.8564 28.9335 84.077C39.228 94.6019 46.2833 87.9304 54.9587 79.7269C57.6884 77.1457 60.5785 74.4128 63.7803 72.0162C70.3604 67.091 77.6516 72.8914 84.3768 78.2416C91.3246 83.7689 97.6684 88.8156 102 81.0592L101.878 78.991Z" style="fill:url(#gradient_11);fill-rule:evenodd;filter:url(#filter_12);mix-blend-mode:normal;" transform="translate(51 129)" />
    </g>
    <g style="fill:#ffffff;stroke-width:1;stroke:#808080;filter:url(#filter_13);mix-blend-mode:normal;" transform="translate(532 69)">
      <path d="M102.85 131.274L95.37 131.274Q95.37 131.274 95.37 128.329Q95.37 125.383 95.37 121.456Q95.37 117.529 95.37 114.584Q95.37 111.639 95.37 111.639Q95.37 111.639 95.37 111.639Q95.37 111.639 95.37 111.639Q95.37 111.639 95.37 111.639Q95.37 111.639 95.37 111.639Q95.37 111.639 95.37 108.694Q95.37 105.749 95.37 101.822Q95.37 97.8945 95.37 94.9492Q95.37 92.004 95.37 92.004L102.85 92.004L102.85 131.274ZM-3.74 131.274L-3.74 92.004L3.74 92.004Q3.74 92.004 3.74 94.9492Q3.74 97.8945 3.74 101.822Q3.74 105.749 3.74 108.694Q3.74 111.639 3.74 111.639Q3.74 111.639 3.74 114.584Q3.74 117.529 3.74 121.456Q3.74 125.383 3.74 128.329Q3.74 131.274 3.74 131.274L-3.74 131.274ZM102.85 116.127Q102.85 116.127 102.85 119.914Q102.85 123.701 102.85 129.638Q102.85 135.575 102.85 142.214Q102.85 148.852 102.85 154.789Q102.85 160.727 102.85 164.513Q102.85 168.3 102.85 168.3Q102.85 168.3 102.85 168.3Q102.85 168.3 102.85 168.3Q102.85 168.3 102.85 168.3Q102.85 168.3 102.85 168.3Q102.85 168.3 98.923 168.3Q94.996 168.3 88.7783 168.3Q82.5605 168.3 75.548 168.3Q68.5355 168.3 62.3178 168.3Q56.1 168.3 52.173 168.3Q48.246 168.3 48.246 168.3Q48.246 166.43 48.246 164.513Q48.246 162.596 48.246 160.82Q48.246 160.82 51.6588 160.82Q55.0715 160.82 60.4478 160.82Q65.824 160.82 71.808 160.82Q77.792 160.82 83.1683 160.82Q88.5445 160.82 91.9573 160.82Q95.37 160.82 95.37 160.82Q95.37 160.82 95.37 160.82Q95.37 160.82 95.37 160.82Q95.37 160.82 95.37 160.82Q95.37 160.82 95.37 160.82Q95.37 160.82 95.37 160.82Q95.37 160.82 95.37 160.82Q95.37 160.82 95.37 160.82Q95.37 160.82 95.37 160.82Q95.37 160.82 95.37 160.82Q95.37 160.82 95.37 160.82Q95.37 160.82 95.37 160.82Q95.37 160.82 95.37 160.82Q95.37 160.82 95.37 160.82Q95.37 160.82 95.37 157.594Q95.37 154.368 95.37 149.273Q95.37 144.177 95.37 138.474Q95.37 132.77 95.37 127.674Q95.37 122.579 95.37 119.353Q95.37 116.127 95.37 116.127L102.85 116.127ZM-3.74 116.127L3.74 116.127Q3.74 116.127 3.74 119.353Q3.74 122.579 3.74 127.674Q3.74 132.77 3.74 138.474Q3.74 144.177 3.74 149.273Q3.74 154.368 3.74 157.594Q3.74 160.82 3.74 160.82Q3.74 160.82 7.15275 160.82Q10.5655 160.82 15.9418 160.82Q21.318 160.82 27.302 160.82Q33.286 160.82 38.6623 160.82Q44.0385 160.82 47.4513 160.82Q50.864 160.82 50.864 160.82Q50.864 162.596 50.864 164.513Q50.864 166.43 50.864 168.3Q50.864 168.3 46.937 168.3Q43.01 168.3 36.7923 168.3Q30.5745 168.3 23.562 168.3Q16.5495 168.3 10.3318 168.3Q4.114 168.3 0.187 168.3Q-3.74 168.3 -3.74 168.3Q-3.74 168.3 -3.74 164.513Q-3.74 160.727 -3.74 154.789Q-3.74 148.852 -3.74 142.214Q-3.74 135.575 -3.74 129.638Q-3.74 123.701 -3.74 119.914Q-3.74 116.127 -3.74 116.127ZM102.85 110.891L95.37 110.891Q95.37 110.891 95.37 107.665Q95.37 104.44 95.37 99.3438Q95.37 94.248 95.37 88.5445Q95.37 82.841 95.37 77.7453Q95.37 72.6495 95.37 69.4238Q95.37 66.198 95.37 66.198Q95.37 66.198 95.37 66.198Q95.37 66.198 95.37 66.198Q95.37 66.198 95.37 66.198Q95.37 66.198 95.37 66.198Q95.37 66.198 95.37 66.198Q95.37 66.198 95.37 66.198Q95.37 66.198 95.37 66.198Q95.37 66.198 95.37 66.198Q95.37 66.198 95.37 66.198Q95.37 66.198 95.37 66.198Q95.37 66.198 95.37 66.198Q95.37 66.198 95.37 66.198Q95.37 66.198 95.37 66.198Q95.37 66.198 91.9573 66.198Q88.5445 66.198 83.1683 66.198Q77.792 66.198 71.808 66.198Q65.824 66.198 60.4478 66.198Q55.0715 66.198 51.6588 66.198Q48.246 66.198 48.246 66.198Q48.246 64.328 48.246 62.4112Q48.246 60.4945 48.246 58.718Q48.246 58.718 52.173 58.718Q56.1 58.718 62.3178 58.718Q68.5355 58.718 75.548 58.718Q82.5605 58.718 88.7783 58.718Q94.996 58.718 98.923 58.718Q102.85 58.718 102.85 58.718Q102.85 58.718 102.85 58.718Q102.85 58.718 102.85 58.718Q102.85 58.718 102.85 58.718Q102.85 58.718 102.85 58.718Q102.85 58.718 102.85 62.5048Q102.85 66.2915 102.85 72.2288Q102.85 78.166 102.85 84.8045Q102.85 91.443 102.85 97.3802Q102.85 103.317 102.85 107.104Q102.85 110.891 102.85 110.891ZM-3.74 110.891Q-3.74 110.891 -3.74 107.104Q-3.74 103.317 -3.74 97.3802Q-3.74 91.443 -3.74 84.8045Q-3.74 78.166 -3.74 72.2288Q-3.74 66.2915 -3.74 62.5048Q-3.74 58.718 -3.74 58.718Q-3.74 58.718 0.187 58.718Q4.114 58.718 10.3318 58.718Q16.5495 58.718 23.562 58.718Q30.5745 58.718 36.7923 58.718Q43.01 58.718 46.937 58.718Q50.864 58.718 50.864 58.718Q50.864 60.4945 50.864 62.4112Q50.864 64.328 50.864 66.198Q50.864 66.198 47.4513 66.198Q44.0385 66.198 38.6623 66.198Q33.286 66.198 27.302 66.198Q21.318 66.198 15.9418 66.198Q10.5655 66.198 7.15275 66.198Q3.74 66.198 3.74 66.198Q3.74 66.198 3.74 69.4238Q3.74 72.6495 3.74 77.7453Q3.74 82.841 3.74 88.5445Q3.74 94.248 3.74 99.3438Q3.74 104.44 3.74 107.665Q3.74 110.891 3.74 110.891L-3.74 110.891ZM51.8925 161.007Q51.8925 161.007 51.8925 161.007Q51.8925 161.007 51.8925 161.007Q51.8925 161.007 51.8925 161.007Q51.8925 161.007 51.8925 161.007Q51.8925 161.007 51.8925 161.007Q51.8925 161.007 51.8925 161.007Q51.8925 161.007 51.8925 161.007Q51.8925 161.007 51.8925 161.007Q51.8925 161.007 51.2848 161.848Q50.677 162.69 50.0225 163.532Q49.368 164.373 49.368 164.373Q49.368 164.373 48.1525 163.532Q46.937 162.69 45.7683 161.895Q44.5995 161.101 44.5995 161.101Q44.5995 161.101 44.5995 161.101Q44.5995 161.101 44.5995 161.101Q44.5995 161.101 44.5995 161.101Q44.5995 161.101 44.5995 161.101Q44.5995 161.101 44.5995 161.101Q44.5995 161.101 44.5995 161.101Q44.5995 161.101 44.5995 161.101Q44.5995 161.101 43.8048 157.828Q43.01 154.556 41.7945 149.413Q40.579 144.271 39.2233 138.474Q37.8675 132.677 36.652 127.534Q35.4365 122.392 34.6418 119.119Q33.847 115.847 33.847 115.846Q33.847 115.846 35.5768 115.379Q37.3065 114.911 39.0363 114.491Q40.766 114.07 40.766 114.07Q40.766 114.07 41.5608 117.483Q42.3555 120.895 43.6178 126.225Q44.88 131.555 46.3293 137.538Q47.7785 143.523 49.0408 148.852Q50.303 154.182 51.0978 157.594Q51.8925 161.007 51.8925 161.007ZM47.4045 65.824Q47.4045 65.824 48.059 64.9825Q48.7135 64.141 49.3213 63.2995Q49.929 62.458 49.929 62.458Q49.929 62.458 51.0978 63.2527Q52.2665 64.0475 53.482 64.889Q54.6975 65.7305 54.6975 65.7305Q54.6975 65.7305 55.4923 69.003Q56.287 72.2755 57.5025 77.418Q58.718 82.5605 60.0738 88.3575Q61.4295 94.1545 62.645 99.297Q63.8605 104.44 64.6553 107.712Q65.45 110.984 65.45 110.984Q65.45 110.984 63.7203 111.405Q61.9905 111.826 60.2607 112.294Q58.531 112.761 58.531 112.761Q58.531 112.761 58.531 112.761Q58.531 112.761 58.531 112.761Q58.531 112.761 58.531 112.761Q58.531 112.761 58.531 112.761Q58.531 112.761 58.531 112.761Q58.531 112.761 58.531 112.761Q58.531 112.761 57.7363 109.348Q56.9415 105.936 55.6793 100.606Q54.417 95.2765 52.9678 89.2925Q51.5185 83.3085 50.2563 77.979Q48.994 72.6495 48.1992 69.2367Q47.4045 65.824 47.4045 65.824ZM201.96 144.364L194.48 144.364Q194.48 139.221 194.48 136.136Q194.48 133.051 194.48 130.199Q194.48 127.347 194.48 122.859Q194.48 122.859 194.48 122.859Q194.48 122.859 194.48 122.859Q194.48 122.859 194.48 122.859Q194.48 122.859 194.48 122.859Q194.48 118.184 194.48 115.753Q194.48 113.322 194.48 111.686Q194.48 110.049 194.48 107.852Q194.48 105.655 194.48 101.354L201.96 101.354L201.96 144.364ZM201.96 116.127Q201.96 116.127 201.96 119.914Q201.96 123.701 201.96 129.638Q201.96 135.575 201.96 142.214Q201.96 148.852 201.96 154.789Q201.96 160.727 201.96 164.513Q201.96 168.3 201.96 168.3Q201.96 168.3 201.96 168.3Q201.96 168.3 201.96 168.3Q201.96 168.3 201.96 168.3Q201.96 168.3 201.96 168.3Q201.96 168.3 198.173 168.3Q194.387 168.3 188.402 168.3Q182.419 168.3 175.64 168.3Q168.861 168.3 162.643 168.3Q156.426 168.3 152.218 168.3Q148.01 168.3 147.356 168.3Q147.356 166.43 147.356 164.513Q147.356 162.596 147.356 160.82Q147.356 160.82 150.582 160.82Q153.807 160.82 158.576 160.82Q163.345 160.82 168.113 160.82Q172.882 160.82 176.107 160.82Q179.333 160.82 179.333 160.82Q179.333 160.82 179.333 160.82Q179.333 160.82 179.333 160.82Q179.333 160.82 179.333 160.82Q179.613 160.82 181.203 159.417Q182.792 158.015 185.036 155.865Q187.28 153.714 189.431 151.517Q191.581 149.32 193.031 147.73Q194.48 146.141 194.48 145.86L194.48 116.127L201.96 116.127ZM201.96 129.965L194.48 129.965L194.48 100.232Q194.48 99.9515 193.031 98.362Q191.581 96.7725 189.431 94.5752Q187.28 92.378 185.036 90.2275Q182.792 88.077 181.203 86.6745Q179.613 85.272 179.333 85.272Q179.333 85.272 179.333 85.272Q179.333 85.272 179.333 85.272Q179.333 85.272 179.333 85.272Q179.333 85.272 176.107 85.272Q172.882 85.272 168.113 85.272Q163.344 85.272 158.576 85.272Q153.807 85.272 150.582 85.272Q147.356 85.272 147.356 85.272Q147.356 83.402 147.356 81.4852Q147.356 79.5685 147.356 77.792Q148.01 77.792 152.218 77.792Q156.426 77.792 162.643 77.792Q168.861 77.792 175.64 77.792Q182.418 77.792 188.402 77.792Q194.387 77.792 198.173 77.792Q201.96 77.792 201.96 77.792Q201.96 77.792 201.96 77.792Q201.96 77.792 201.96 77.792Q201.96 77.792 201.96 77.792Q201.96 77.792 201.96 77.792Q201.96 77.792 201.96 81.5787Q201.96 85.3655 201.96 91.3027Q201.96 97.24 201.96 103.879Q201.96 110.517 201.96 116.454Q201.96 122.392 201.96 126.178Q201.96 129.965 201.96 129.965ZM144.925 134.453Q144.925 134.453 144.925 130.947Q144.925 127.441 144.925 122.859Q144.925 118.277 144.925 114.771Q144.925 111.265 144.925 111.265Q144.925 110.704 145.018 110.611Q145.112 110.517 145.673 110.517Q146.701 110.517 147.683 110.517Q148.665 110.517 149.647 110.517Q150.629 110.517 151.657 110.517Q152.218 110.517 152.311 110.611Q152.405 110.704 152.405 111.265Q152.405 111.265 152.405 114.771Q152.405 118.278 152.405 122.859Q152.405 127.441 152.405 130.947Q152.405 134.453 152.405 134.453Q152.405 135.014 152.311 135.107Q152.218 135.201 151.657 135.201Q150.161 135.201 148.712 135.201Q147.262 135.201 145.673 135.201Q145.112 135.201 145.018 135.107Q144.925 135.014 144.925 134.453ZM95.37 144.364L95.37 101.354L102.85 101.354Q102.85 105.655 102.85 107.852Q102.85 110.049 102.85 111.686Q102.85 113.322 102.85 115.753Q102.85 118.184 102.85 122.859Q102.85 122.859 102.85 122.859Q102.85 122.859 102.85 122.859Q102.85 122.859 102.85 122.859Q102.85 122.859 102.85 122.859Q102.85 127.347 102.85 130.199Q102.85 133.051 102.85 136.136Q102.85 139.221 102.85 144.364L95.37 144.364ZM95.37 116.127L102.85 116.127L102.85 145.86Q102.85 146.141 104.299 147.73Q105.749 149.32 107.899 151.517Q110.049 153.714 112.294 155.865Q114.537 158.015 116.127 159.417Q117.716 160.82 117.997 160.82Q117.997 160.82 121.223 160.82Q124.449 160.82 129.217 160.82Q133.986 160.82 138.754 160.82Q143.522 160.82 146.748 160.82Q149.974 160.82 149.974 160.82Q149.974 162.596 149.974 164.513Q149.974 166.43 149.974 168.3Q149.32 168.3 145.112 168.3Q140.905 168.3 134.687 168.3Q128.469 168.3 121.69 168.3Q114.911 168.3 108.927 168.3Q102.944 168.3 99.1568 168.3Q95.37 168.3 95.37 168.3Q95.37 168.3 95.37 164.513Q95.37 160.727 95.37 154.789Q95.37 148.852 95.37 142.214Q95.37 135.575 95.37 129.638Q95.37 123.701 95.37 119.914Q95.37 116.127 95.37 116.127ZM95.37 129.965Q95.37 129.965 95.37 126.178Q95.37 122.392 95.37 116.454Q95.37 110.517 95.37 103.879Q95.37 97.24 95.37 91.3027Q95.37 85.3655 95.37 81.5787Q95.37 77.792 95.37 77.792Q95.37 77.792 99.1568 77.792Q102.944 77.792 108.927 77.792Q114.911 77.792 121.69 77.792Q128.469 77.792 134.687 77.792Q140.905 77.792 145.112 77.792Q149.319 77.792 149.974 77.792Q149.974 79.5685 149.974 81.4852Q149.974 83.402 149.974 85.272Q149.974 85.272 146.748 85.272Q143.523 85.272 138.754 85.272Q133.986 85.272 129.217 85.272Q124.449 85.272 121.223 85.272Q117.997 85.272 117.997 85.272Q117.997 85.272 117.997 85.272Q117.997 85.272 117.997 85.272Q117.997 85.272 117.997 85.272Q117.716 85.272 116.127 86.6745Q114.537 88.077 112.294 90.2275Q110.049 92.378 107.899 94.5752Q105.749 96.7725 104.299 98.362Q102.85 99.9515 102.85 100.232L102.85 129.965L95.37 129.965ZM247.962 168.3Q247.588 168.3 243.568 168.3Q239.547 168.3 233.469 168.3Q227.392 168.3 220.66 168.3Q213.928 168.3 207.944 168.3Q201.96 168.3 198.22 168.3Q194.48 168.3 194.48 168.3L194.48 120.054L201.96 120.054L201.96 160.82Q201.96 160.82 205.232 160.82Q208.505 160.82 212.806 160.82Q217.107 160.82 220.38 160.82Q223.652 160.82 223.652 160.82Q223.652 160.82 226.924 160.82Q230.197 160.82 234.498 160.82Q238.799 160.82 242.072 160.82Q245.344 160.82 245.344 160.82Q245.344 160.82 245.344 160.353Q245.344 159.885 245.344 157.548Q245.344 155.21 245.344 149.787Q245.344 144.364 245.344 134.453Q245.344 134.453 249.505 134.453Q253.665 134.453 259.79 134.453Q265.914 134.453 272.038 134.453Q278.163 134.453 282.323 134.453Q286.484 134.453 286.484 134.453Q286.484 134.453 286.484 134.453Q286.484 134.453 286.484 134.453Q286.484 134.453 286.484 134.453Q286.484 134.453 286.484 134.453Q286.484 134.453 286.484 134.453Q286.484 134.453 286.484 131.461Q286.484 128.469 286.484 124.075Q286.484 119.68 286.484 115.285Q286.484 110.891 286.484 107.899Q286.484 104.907 286.484 104.907Q286.484 104.907 286.484 104.907Q286.484 104.907 286.484 104.907Q286.484 104.907 286.484 104.907Q286.484 104.907 286.484 104.907Q286.484 104.907 286.484 104.907L293.964 104.907L293.964 168.3Q293.964 168.3 290.738 168.3Q287.513 168.3 282.37 168.3Q277.228 168.3 271.384 168.3Q265.54 168.3 260.304 168.3Q255.068 168.3 251.655 168.3Q248.242 168.3 247.962 168.3ZM194.48 124.355Q194.48 124.355 194.48 120.989Q194.48 117.623 194.48 112.34Q194.48 107.057 194.48 101.074Q194.48 95.0895 194.48 89.8067Q194.48 84.524 194.48 81.158Q194.48 77.792 194.48 77.792Q194.48 77.792 198.173 77.792Q201.867 77.792 207.757 77.792Q213.648 77.792 220.193 77.792Q226.738 77.792 232.628 77.792Q238.519 77.792 242.212 77.792Q245.905 77.792 245.905 77.792Q245.905 77.792 245.905 77.792Q245.905 77.792 245.905 77.792Q245.905 77.792 245.905 77.792Q245.905 77.792 245.905 77.792Q245.905 77.792 245.905 77.792Q245.905 77.792 245.905 77.792Q245.905 77.792 245.905 77.792Q245.905 77.792 245.905 77.792Q245.905 77.792 245.905 77.792Q245.905 78.8205 245.905 81.345Q245.905 83.8695 245.905 87.142Q245.905 90.4145 245.905 93.874Q245.905 97.3335 245.905 100.372Q245.905 103.411 245.905 105.281Q245.905 105.281 244.362 102.242Q242.82 99.2035 240.856 95.2765Q238.893 91.3495 237.35 88.3108Q235.807 85.272 235.807 85.272Q235.807 85.272 232.394 85.272Q228.982 85.272 223.932 85.272Q218.883 85.272 213.835 85.272Q208.786 85.272 205.373 85.272Q201.96 85.272 201.96 85.272Q201.96 85.272 201.96 85.272Q201.96 85.272 201.96 85.272Q201.96 85.272 201.96 85.272Q201.96 85.272 201.96 85.272Q201.96 85.272 201.96 85.272Q201.96 85.272 201.96 85.272Q201.96 85.272 201.96 85.272Q201.96 85.272 201.96 85.272Q201.96 85.272 201.96 85.272Q201.96 85.272 201.96 85.272Q201.96 85.272 201.96 85.272Q201.96 85.272 201.96 89.199Q201.96 93.126 201.96 98.9697Q201.96 104.813 201.96 110.657Q201.96 116.501 201.96 120.428Q201.96 124.355 201.96 124.355L194.48 124.355ZM293.964 115.379L286.484 115.379Q286.484 115.379 286.484 115.379Q286.484 115.379 286.484 115.379Q286.484 115.379 286.484 115.379Q286.484 115.379 286.484 115.379Q286.484 115.379 286.484 115.099Q286.484 114.818 286.484 113.462Q286.484 112.107 286.484 108.927Q286.484 105.749 286.484 100.045Q286.484 94.3415 286.484 85.272Q286.484 85.272 286.484 85.272Q286.484 85.272 286.484 85.272Q286.484 85.272 286.484 85.272Q286.484 85.272 286.484 85.272Q286.484 85.272 284.287 85.272Q282.09 85.272 278.677 85.272Q275.264 85.272 271.431 85.272Q267.597 85.272 264.184 85.272Q260.771 85.272 258.574 85.272Q256.377 85.272 256.377 85.272Q256.377 85.272 254.788 88.3108Q253.198 91.3495 251.141 95.2765Q249.084 99.2035 247.495 102.242Q245.905 105.281 245.905 105.281Q245.905 105.281 245.905 105.281Q245.905 105.281 245.905 105.281Q245.905 105.281 245.905 105.281Q245.905 105.281 245.484 102.242Q245.064 99.2035 244.549 95.2765Q244.035 91.3495 243.614 88.3108Q243.193 85.272 243.194 85.272Q243.193 85.272 243.194 84.524Q243.193 83.776 243.194 82.654Q243.193 81.532 243.194 80.41Q243.193 79.288 243.194 78.54Q243.193 77.792 243.194 77.792Q243.193 77.792 243.194 77.792Q243.193 77.792 243.194 77.792Q243.193 77.792 243.194 77.792Q243.193 77.792 243.194 77.792Q243.193 77.792 246.84 77.792Q250.487 77.792 256.284 77.792Q262.081 77.792 268.579 77.792Q275.077 77.792 280.874 77.792Q286.671 77.792 290.318 77.792Q293.964 77.792 293.964 77.792Q293.964 77.792 293.964 80.5035Q293.964 83.215 293.964 87.516Q293.964 91.817 293.964 96.5855Q293.964 101.354 293.964 105.655Q293.964 109.956 293.964 112.667Q293.964 115.379 293.964 115.379ZM286.484 135.201L286.484 92.191L293.964 92.191Q293.964 96.492 293.964 98.6892Q293.964 100.887 293.964 102.523Q293.964 104.159 293.964 106.59Q293.964 109.021 293.964 113.696Q293.964 113.696 293.964 113.696Q293.964 113.696 293.964 113.696Q293.964 113.696 293.964 113.696Q293.964 113.696 293.964 113.696Q293.964 118.184 293.964 121.036Q293.964 123.888 293.964 126.973Q293.964 130.059 293.964 135.201L286.484 135.201ZM286.484 116.127L293.964 116.127L293.964 145.86Q293.964 146.141 295.413 147.73Q296.862 149.32 299.013 151.517Q301.164 153.714 303.408 155.865Q305.651 158.015 307.241 159.417Q308.831 160.82 309.111 160.82Q310.233 160.82 312.29 160.82Q314.347 160.82 316.825 160.82Q319.302 160.82 321.547 160.82Q323.79 160.82 325.38 160.82Q326.97 160.82 327.25 160.82Q327.25 162.596 327.25 164.513Q327.25 166.43 327.25 168.3Q327.25 168.3 323.136 168.3Q319.022 168.3 312.944 168.3Q306.867 168.3 300.789 168.3Q294.712 168.3 290.598 168.3Q286.484 168.3 286.484 168.3Q286.484 163.812 286.484 159.371Q286.484 154.93 286.484 150.582Q286.484 146.234 286.484 141.886Q286.484 137.538 286.484 133.238Q286.484 128.936 286.484 124.635Q286.484 120.335 286.484 116.127ZM365.398 116.127Q365.398 116.127 365.398 119.914Q365.398 123.701 365.398 129.638Q365.398 135.575 365.398 142.214Q365.398 148.852 365.398 154.789Q365.398 160.727 365.398 164.513Q365.398 168.3 365.398 168.3Q365.398 168.3 365.398 168.3Q365.398 168.3 365.398 168.3Q365.398 168.3 365.398 168.3Q365.398 168.3 361.284 168.3Q357.17 168.3 351.092 168.3Q345.015 168.3 338.938 168.3Q332.86 168.3 328.746 168.3Q324.632 168.3 324.632 168.3Q324.632 166.43 324.632 164.513Q324.632 162.596 324.632 160.82Q324.632 160.82 327.998 160.82Q331.364 160.82 336.32 160.82Q341.275 160.82 346.23 160.82Q351.186 160.82 354.552 160.82Q357.918 160.82 357.918 160.82Q357.918 160.82 357.918 156.285Q357.918 151.751 357.918 145.112Q357.918 138.474 357.918 131.835Q357.918 125.197 357.918 120.662Q357.918 116.127 357.918 116.127L365.398 116.127ZM334.917 118.184Q334.917 117.81 334.964 117.67Q335.01 117.53 335.151 117.483Q335.291 117.436 335.665 117.436Q335.665 117.436 338.564 117.436Q341.462 117.436 345.763 117.436Q350.064 117.436 354.365 117.436Q358.666 117.436 361.565 117.436Q364.463 117.436 364.463 117.436Q364.463 117.436 364.463 117.436Q364.463 117.436 364.463 117.436Q364.463 117.436 364.463 117.436Q364.463 117.436 364.463 117.436Q364.463 117.436 364.463 117.436Q365.024 117.436 365.117 117.529Q365.211 117.623 365.211 118.184Q365.211 118.184 365.211 118.792Q365.211 119.4 365.211 120.288Q365.211 121.176 365.211 122.064Q365.211 122.952 365.211 123.56Q365.211 124.168 365.211 124.168Q365.211 124.729 365.117 124.822Q365.024 124.916 364.463 124.916Q364.463 124.916 364.463 124.916Q364.463 124.916 364.463 124.916Q364.463 124.916 364.463 124.916Q364.463 124.916 364.463 124.916Q364.463 124.916 364.463 124.916Q364.463 124.916 361.565 124.916Q358.666 124.916 354.365 124.916Q350.064 124.916 345.763 124.916Q341.462 124.916 338.564 124.916Q335.665 124.916 335.665 124.916Q335.291 124.916 335.151 124.869Q335.01 124.822 334.964 124.682Q334.917 124.542 334.917 124.168Q334.917 124.168 334.917 122.672Q334.917 121.176 334.917 119.68Q334.917 118.184 334.917 118.184ZM286.484 114.444L286.484 58.718Q286.484 58.718 289.523 58.718Q292.561 58.718 297.096 58.718Q301.631 58.718 306.166 58.718Q310.701 58.718 313.739 58.718Q316.778 58.718 316.778 58.718Q316.778 58.718 319.583 58.718Q322.388 58.718 326.549 58.718Q330.71 58.718 334.87 58.718Q339.031 58.718 341.836 58.718Q344.641 58.718 344.641 58.718L344.641 77.792Q344.922 77.792 344.734 77.792Q344.548 77.792 346.324 77.792Q347.539 77.792 349.737 77.792Q351.934 77.792 355.534 77.792Q359.133 77.792 364.65 77.792Q365.211 77.792 365.305 77.8855Q365.398 77.979 365.398 78.727L365.398 116.501L357.918 116.501Q357.918 116.501 357.918 113.369Q357.918 110.236 357.918 105.562Q357.918 100.887 357.918 96.2115Q357.918 91.5365 357.918 88.4043Q357.918 85.272 357.918 85.272Q357.918 85.272 357.918 85.272Q357.918 85.272 357.918 85.272Q357.918 85.272 357.918 85.272Q357.918 85.272 357.918 85.272Q357.918 85.272 357.918 85.272Q352.682 85.272 348.755 85.272Q344.828 85.272 342.257 85.272Q339.686 85.272 338.423 85.272Q337.161 85.272 337.161 85.272Q337.161 85.272 337.161 85.272Q337.161 85.272 337.161 85.272Q337.161 85.272 337.161 85.272Q337.161 84.711 337.161 84.15Q337.161 83.589 337.161 83.028L337.161 66.198Q337.161 66.198 334.076 66.198Q330.99 66.198 326.876 66.198Q322.762 66.198 319.677 66.198Q316.591 66.198 316.591 66.198Q316.591 66.198 313.178 66.198Q309.766 66.198 305.277 66.198Q300.789 66.198 297.377 66.198Q293.964 66.198 293.964 66.198L293.964 114.444L286.484 114.444ZM464.508 116.127Q464.508 116.127 464.508 119.914Q464.508 123.701 464.508 129.638Q464.508 135.575 464.508 142.214Q464.508 148.852 464.508 154.789Q464.508 160.727 464.508 164.513Q464.508 168.3 464.508 168.3Q464.508 168.3 464.508 168.3Q464.508 168.3 464.508 168.3Q464.508 168.3 464.508 168.3Q464.508 168.3 464.508 168.3Q464.508 168.3 460.581 168.3Q456.654 168.3 450.436 168.3Q444.219 168.3 437.206 168.3Q430.194 168.3 423.976 168.3Q417.758 168.3 413.831 168.3Q409.904 168.3 409.904 168.3Q409.904 166.43 409.904 164.513Q409.904 162.596 409.904 160.82Q409.904 160.82 413.317 160.82Q416.73 160.82 422.106 160.82Q427.482 160.82 433.466 160.82Q439.45 160.82 444.826 160.82Q450.203 160.82 453.615 160.82Q457.028 160.82 457.028 160.82Q457.028 160.82 457.028 160.82Q457.028 160.82 457.028 160.82Q457.028 160.82 457.028 160.82Q457.028 160.82 457.028 160.82Q457.028 160.82 457.028 160.82Q457.028 160.82 457.028 160.82Q457.028 160.82 457.028 160.82Q457.028 160.82 457.028 160.82Q457.028 160.82 457.028 160.82Q457.028 160.82 457.028 160.82Q457.028 160.82 457.028 160.82Q457.028 160.82 457.028 160.82Q457.028 160.82 457.028 160.82Q457.028 160.82 457.028 157.594Q457.028 154.368 457.028 149.273Q457.028 144.177 457.028 138.474Q457.028 132.77 457.028 127.674Q457.028 122.579 457.028 119.353Q457.028 116.127 457.028 116.127L464.508 116.127ZM357.918 116.127L365.398 116.127Q365.398 116.127 365.398 119.353Q365.398 122.579 365.398 127.674Q365.398 132.77 365.398 138.474Q365.398 144.177 365.398 149.273Q365.398 154.368 365.398 157.594Q365.398 160.82 365.398 160.82Q365.398 160.82 368.811 160.82Q372.224 160.82 377.6 160.82Q382.976 160.82 388.96 160.82Q394.944 160.82 400.32 160.82Q405.697 160.82 409.109 160.82Q412.522 160.82 412.522 160.82Q412.522 162.596 412.522 164.513Q412.522 166.43 412.522 168.3Q412.522 168.3 408.595 168.3Q404.668 168.3 398.45 168.3Q392.233 168.3 385.22 168.3Q378.208 168.3 371.99 168.3Q365.772 168.3 361.845 168.3Q357.918 168.3 357.918 168.3Q357.918 168.3 357.918 164.513Q357.918 160.727 357.918 154.789Q357.918 148.852 357.918 142.214Q357.918 135.575 357.918 129.638Q357.918 123.701 357.918 119.914Q357.918 116.127 357.918 116.127ZM357.918 112.948L357.918 58.718Q357.918 58.718 360.863 58.718Q363.809 58.718 368.156 58.718Q372.504 58.718 376.899 58.718Q381.293 58.718 384.379 58.718Q387.464 58.718 387.651 58.718Q387.838 58.718 390.783 58.718Q393.729 58.718 397.936 58.718Q402.144 58.718 406.304 58.718Q410.465 58.718 413.27 58.718Q416.075 58.718 416.075 58.718L416.075 77.792Q416.636 77.792 418.413 77.792Q420.189 77.792 422.76 77.792Q425.332 77.792 428.23 77.792Q431.877 77.792 435.336 77.792Q438.796 77.792 442.863 77.792Q446.93 77.792 452.166 77.792Q457.402 77.792 464.508 77.792L464.508 114.631L457.028 114.631L457.028 100.232Q457.028 100.232 457.028 100.232Q457.028 100.232 457.028 100.232Q457.028 99.9515 455.626 98.362Q454.223 96.7725 452.073 94.5752Q449.922 92.378 447.725 90.2275Q445.528 88.077 443.891 86.6745Q442.255 85.272 441.881 85.272Q441.881 85.272 441.881 85.272Q441.881 85.272 441.881 85.272Q441.881 85.272 441.881 85.272Q440.011 85.272 436.131 85.272Q432.251 85.272 427.529 85.272Q422.807 85.272 418.506 85.272Q414.205 85.272 411.4 85.272Q408.595 85.272 408.595 85.272Q408.595 85.272 408.595 85.272Q408.595 85.272 408.595 85.272Q408.595 85.272 408.595 85.272Q408.595 85.272 408.595 85.272L408.595 66.198Q408.595 66.198 405.416 66.198Q402.237 66.198 398.123 66.198Q394.009 66.198 390.83 66.198Q387.651 66.198 387.651 66.198Q387.651 66.198 384.285 66.198Q380.919 66.198 376.525 66.198Q372.13 66.198 368.764 66.198Q365.398 66.198 365.398 66.198L365.398 112.948L357.918 112.948ZM357.918 101.354L365.398 101.354Q365.398 106.497 365.398 109.582Q365.398 112.667 365.398 115.519Q365.398 118.371 365.398 122.859Q365.398 122.859 365.398 122.859Q365.398 122.859 365.398 122.859Q365.398 122.859 365.398 122.859Q365.398 122.859 365.398 122.859Q365.398 127.534 365.398 129.965Q365.398 132.396 365.398 134.032Q365.398 135.669 365.398 137.866Q365.398 140.063 365.398 144.364L357.918 144.364L357.918 101.354ZM464.508 144.364L457.028 144.364Q457.028 139.221 457.028 136.136Q457.028 133.051 457.028 130.199Q457.028 127.347 457.028 122.859Q457.028 122.859 457.028 122.859Q457.028 122.859 457.028 122.859Q457.028 122.859 457.028 122.859Q457.028 122.859 457.028 122.859Q457.028 118.184 457.028 115.753Q457.028 113.322 457.028 111.686Q457.028 110.049 457.028 107.852Q457.028 105.655 457.028 101.354L464.508 101.354L464.508 144.364ZM408.221 162.129Q407.941 162.129 407.8 162.129Q407.66 162.129 407.567 162.036Q407.473 161.942 407.473 161.802Q407.473 161.661 407.473 161.381Q407.473 161.381 407.473 158.482Q407.473 155.584 407.473 151.049Q407.473 146.515 407.473 141.372Q407.473 136.23 407.473 131.695Q407.473 127.16 407.473 124.262Q407.473 121.363 407.473 121.363Q407.473 120.989 407.52 120.849Q407.567 120.709 407.707 120.662Q407.847 120.615 408.221 120.615Q408.221 120.615 409.717 120.615Q411.213 120.615 412.709 120.615Q414.205 120.615 414.205 120.615Q414.579 120.615 414.719 120.662Q414.86 120.709 414.906 120.849Q414.953 120.989 414.953 121.363Q414.953 121.363 414.953 124.262Q414.953 127.16 414.953 131.695Q414.953 136.23 414.953 141.372Q414.953 146.515 414.953 151.049Q414.953 155.584 414.953 158.482Q414.953 161.381 414.953 161.381Q414.953 161.661 414.953 161.802Q414.953 161.942 414.86 162.036Q414.766 162.129 414.626 162.129Q414.486 162.129 414.205 162.129Q414.205 162.129 412.709 162.129Q411.213 162.129 409.717 162.129Q408.221 162.129 408.221 162.129ZM457.028 129.965Q457.028 125.664 457.028 120.241Q457.028 114.818 457.028 108.927Q457.028 103.037 457.028 97.5205Q457.028 92.004 457.028 87.516Q457.028 83.028 457.028 80.41Q457.028 77.792 457.028 77.792Q457.028 77.792 460.721 77.792Q464.414 77.792 470.165 77.792Q475.915 77.792 482.46 77.792Q489.005 77.792 494.755 77.792Q500.505 77.792 504.199 77.792Q507.892 77.792 507.892 77.792Q507.892 79.5685 507.892 81.4852Q507.892 83.402 507.892 85.272Q507.424 85.272 504.807 85.272Q502.189 85.272 498.402 85.272Q494.615 85.272 490.735 85.272Q486.854 85.272 483.816 85.272Q480.777 85.272 479.655 85.272Q479.655 85.272 479.655 85.272Q479.655 85.272 479.655 85.272Q479.655 85.272 479.655 85.272Q479.655 85.272 479.655 85.272Q479.375 85.272 477.785 86.6745Q476.195 88.077 473.952 90.2275Q471.708 92.378 469.557 94.5752Q467.406 96.7725 465.957 98.362Q464.508 99.9515 464.508 100.232L464.508 129.965L457.028 129.965ZM457.028 101.541L464.508 101.541Q464.508 106.684 464.508 109.769Q464.508 112.854 464.508 115.706Q464.508 118.558 464.508 123.046Q464.508 127.721 464.508 130.152Q464.508 132.583 464.508 134.219Q464.508 135.855 464.508 138.053Q464.508 140.25 464.508 144.551L457.028 144.551L457.028 101.541ZM457.028 116.127L464.508 116.127L464.508 145.86Q464.508 146.141 465.957 147.73Q467.406 149.32 469.557 151.517Q471.708 153.714 473.952 155.865Q476.195 158.015 477.785 159.417Q479.375 160.82 479.655 160.82Q480.777 160.82 483.816 160.82Q486.854 160.82 490.735 160.82Q494.615 160.82 498.402 160.82Q502.189 160.82 504.807 160.82Q507.424 160.82 507.892 160.82Q507.892 162.596 507.892 164.513Q507.892 166.43 507.892 168.3Q507.892 168.3 504.199 168.3Q500.505 168.3 494.755 168.3Q489.005 168.3 482.46 168.3Q475.915 168.3 470.165 168.3Q464.415 168.3 460.721 168.3Q457.028 168.3 457.028 168.3C457.028 168.3 457.028 167.427 457.028 165.682Q457.028 163.064 457.028 158.576Q457.028 154.088 457.028 148.572Q457.028 143.055 457.028 137.211Q457.028 131.368 457.028 125.851Q457.028 120.335 457.028 116.127ZM556.512 129.965L549.032 129.965L549.032 100.232Q549.032 99.9515 547.583 98.362Q546.133 96.7725 543.983 94.5752Q541.833 92.378 539.589 90.2275Q537.344 88.077 535.755 86.6745Q534.166 85.272 533.885 85.272Q533.885 85.272 533.885 85.272Q533.885 85.272 533.885 85.272Q533.885 85.272 533.885 85.272Q533.885 85.272 533.885 85.272Q532.763 85.272 529.724 85.272Q526.685 85.272 522.805 85.272Q518.925 85.272 515.138 85.272Q511.352 85.272 508.734 85.272Q506.116 85.272 505.648 85.272Q505.648 83.402 505.648 81.4852Q505.648 79.5685 505.648 77.792Q505.648 77.792 509.341 77.792Q513.034 77.792 518.785 77.792Q524.535 77.792 531.08 77.792Q537.625 77.792 543.375 77.792Q549.125 77.792 552.819 77.792Q556.512 77.792 556.512 77.792Q556.512 77.792 556.512 80.41Q556.512 83.028 556.512 87.516Q556.512 92.004 556.512 97.5205Q556.512 103.037 556.512 108.927Q556.512 114.818 556.512 120.241Q556.512 125.664 556.512 129.965ZM556.512 121.737Q556.512 121.737 556.512 125.103Q556.512 128.469 556.512 133.752Q556.512 139.035 556.512 145.018Q556.512 151.003 556.512 156.285Q556.512 161.568 556.512 164.934C556.512 167.178 556.512 168.3 556.512 168.3Q556.512 168.3 552.819 168.3Q549.125 168.3 543.375 168.3Q537.625 168.3 531.08 168.3Q524.535 168.3 518.785 168.3Q513.034 168.3 509.341 168.3Q505.648 168.3 505.648 168.3Q505.648 166.43 505.648 164.513Q505.648 162.596 505.648 160.82Q505.648 160.82 510.043 160.82Q514.437 160.82 520.888 160.82Q527.34 160.82 533.792 160.82Q540.243 160.82 544.638 160.82Q549.032 160.82 549.032 160.82Q549.032 160.82 549.032 160.82Q549.032 160.82 549.032 160.82Q549.032 160.82 549.032 160.82Q549.032 160.82 549.032 160.82Q549.032 160.82 549.032 160.82Q549.032 160.82 549.032 160.82Q549.032 160.82 549.032 160.82Q549.032 160.82 549.032 160.82Q549.032 160.82 549.032 160.82Q549.032 160.82 549.032 160.82Q549.032 160.82 549.032 160.82Q549.032 160.82 549.032 156.893Q549.032 152.966 549.032 147.122Q549.032 141.279 549.032 135.435Q549.032 129.591 549.032 125.664Q549.032 121.737 549.032 121.737L556.512 121.737ZM518.738 108.273Q518.738 108.273 518.738 108.273Q518.738 108.273 518.738 108.273Q518.738 108.273 518.738 108.273Q518.738 108.273 518.738 108.273Q518.738 108.273 518.738 108.273Q518.738 108.273 518.738 108.273Q518.738 108.273 518.738 108.273Q519.299 108.273 519.393 108.367Q519.486 108.46 519.486 109.021Q519.486 110.049 519.486 111.031Q519.486 112.013 519.486 112.995Q519.486 113.977 519.486 115.005Q519.486 115.566 519.393 115.66Q519.299 115.753 518.738 115.753Q518.738 115.753 515.232 115.753Q511.725 115.753 507.144 115.753Q502.563 115.753 499.056 115.753Q495.55 115.753 495.55 115.753Q494.989 115.753 494.896 115.66Q494.802 115.566 494.802 115.005Q494.802 113.977 494.802 112.995Q494.802 112.013 494.802 111.031Q494.802 110.049 494.802 109.021Q494.802 108.46 494.896 108.367Q494.989 108.273 495.55 108.273Q495.55 108.273 495.55 108.273Q495.55 108.273 495.55 108.273Q495.55 108.273 499.056 108.273Q502.563 108.273 507.144 108.273Q511.725 108.273 515.232 108.273Q518.738 108.273 518.738 108.273ZM552.585 137.819L549.032 137.819Q549.032 137.819 549.032 137.165Q549.032 136.51 549.032 135.855Q549.032 135.201 549.032 135.201Q549.032 135.201 545.245 135.762Q541.458 136.323 535.895 137.118Q530.332 137.913 524.769 138.707Q519.206 139.502 515.419 140.063Q511.632 140.624 511.632 140.624Q511.632 140.624 511.585 140.25Q511.539 139.876 511.398 139.081Q511.258 138.286 511.071 137.071Q510.884 135.855 510.744 135.014Q510.604 134.173 510.557 133.752Q510.51 133.331 510.51 133.331Q510.51 133.331 514.39 132.77Q518.271 132.209 524.021 131.367Q529.771 130.526 535.521 129.685Q541.271 128.843 545.152 128.282Q549.032 127.721 549.032 127.721Q549.032 127.721 549.032 126.833Q549.032 125.945 549.032 125.056Q549.032 124.168 549.032 124.168L552.585 124.168L552.585 137.819ZM655.622 144.364L648.142 144.364Q648.142 139.221 648.142 136.136Q648.142 133.051 648.142 130.199Q648.142 127.347 648.142 122.859Q648.142 122.859 648.142 122.859Q648.142 122.859 648.142 122.859Q648.142 122.859 648.142 122.859Q648.142 122.859 648.142 122.859Q648.142 118.184 648.142 115.753Q648.142 113.322 648.142 111.686Q648.142 110.049 648.142 107.852Q648.142 105.655 648.142 101.354L655.622 101.354L655.622 144.364ZM549.032 144.364L549.032 101.354L556.512 101.354Q556.512 105.655 556.512 107.852Q556.512 110.049 556.512 111.686Q556.512 113.322 556.512 115.753Q556.512 118.184 556.512 122.859Q556.512 122.859 556.512 122.859Q556.512 122.859 556.512 122.859Q556.512 122.859 556.512 122.859Q556.512 122.859 556.512 122.859Q556.512 127.347 556.512 130.199Q556.512 133.051 556.512 136.136Q556.512 139.221 556.512 144.364L549.032 144.364ZM655.622 129.965L648.142 129.965L648.142 100.232Q648.142 99.9515 646.693 98.362Q645.244 96.7725 643.093 94.5752Q640.943 92.378 638.699 90.2275Q636.455 88.077 634.865 86.6745Q633.276 85.272 632.995 85.272Q632.995 85.272 632.995 85.272Q632.995 85.272 632.995 85.272Q632.995 85.272 632.995 85.272Q632.995 85.272 629.769 85.272Q626.544 85.272 621.775 85.272Q617.007 85.272 612.238 85.272Q607.47 85.272 604.244 85.272Q601.018 85.272 601.018 85.272Q601.018 83.402 601.018 81.4852Q601.018 79.5685 601.018 77.792Q601.673 77.792 605.88 77.792Q610.088 77.792 616.305 77.792Q622.523 77.792 629.302 77.792Q636.081 77.792 642.065 77.792Q648.049 77.792 651.835 77.792Q655.622 77.792 655.622 77.792Q655.622 77.792 655.622 77.792Q655.622 77.792 655.622 77.792Q655.622 77.792 655.622 77.792Q655.622 77.792 655.622 77.792Q655.622 77.792 655.622 81.5787Q655.622 85.3655 655.622 91.3027Q655.622 97.24 655.622 103.879Q655.622 110.517 655.622 116.454Q655.622 122.392 655.622 126.178Q655.622 129.965 655.622 129.965ZM655.622 116.127Q655.622 116.127 655.622 119.914Q655.622 123.701 655.622 129.638Q655.622 135.575 655.622 142.214Q655.622 148.852 655.622 154.789Q655.622 160.727 655.622 164.513Q655.622 168.3 655.622 168.3Q655.622 168.3 655.622 168.3Q655.622 168.3 655.622 168.3Q655.622 168.3 655.622 168.3Q655.622 168.3 655.622 168.3Q655.622 168.3 651.695 168.3Q647.768 168.3 641.55 168.3Q635.333 168.3 628.32 168.3Q621.308 168.3 615.09 168.3Q608.872 168.3 604.945 168.3Q601.018 168.3 601.018 168.3Q601.018 166.43 601.018 164.513Q601.018 162.596 601.018 160.82Q601.018 160.82 604.431 160.82Q607.844 160.82 613.22 160.82Q618.596 160.82 624.58 160.82Q630.564 160.82 635.94 160.82Q641.317 160.82 644.729 160.82Q648.142 160.82 648.142 160.82Q648.142 160.82 648.142 160.82Q648.142 160.82 648.142 160.82Q648.142 160.82 648.142 160.82Q648.142 160.82 648.142 160.82Q648.142 160.82 648.142 160.82Q648.142 160.82 648.142 160.82Q648.142 160.82 648.142 160.82Q648.142 160.82 648.142 160.82Q648.142 160.82 648.142 160.82Q648.142 160.82 648.142 160.82Q648.142 160.82 648.142 160.82Q648.142 160.82 648.142 160.82Q648.142 160.82 648.142 160.82Q648.142 160.82 648.142 157.594Q648.142 154.368 648.142 149.273Q648.142 144.177 648.142 138.474Q648.142 132.77 648.142 127.674Q648.142 122.579 648.142 119.353Q648.142 116.127 648.142 116.127L655.622 116.127ZM549.032 116.127L556.512 116.127Q556.512 116.127 556.512 119.353Q556.512 122.579 556.512 127.674Q556.512 132.77 556.512 138.474Q556.512 144.177 556.512 149.273Q556.512 154.368 556.512 157.594Q556.512 160.82 556.512 160.82Q556.512 160.82 559.925 160.82Q563.338 160.82 568.714 160.82Q574.09 160.82 580.074 160.82Q586.058 160.82 591.434 160.82Q596.811 160.82 600.223 160.82Q603.636 160.82 603.636 160.82Q603.636 162.596 603.636 164.513Q603.636 166.43 603.636 168.3Q603.636 168.3 599.709 168.3Q595.782 168.3 589.564 168.3Q583.347 168.3 576.334 168.3Q569.322 168.3 563.104 168.3Q556.886 168.3 552.959 168.3Q549.032 168.3 549.032 168.3Q549.032 168.3 549.032 164.513Q549.032 160.727 549.032 154.789Q549.032 148.852 549.032 142.214Q549.032 135.575 549.032 129.638Q549.032 123.701 549.032 119.914Q549.032 116.127 549.032 116.127ZM549.032 129.965Q549.032 129.965 549.032 126.178Q549.032 122.392 549.032 116.454Q549.032 110.517 549.032 103.879Q549.032 97.24 549.032 91.3027Q549.032 85.3655 549.032 81.5787Q549.032 77.792 549.032 77.792Q549.032 77.792 552.959 77.792Q556.886 77.792 563.104 77.792Q569.322 77.792 576.334 77.792Q583.347 77.792 589.564 77.792Q595.782 77.792 599.709 77.792Q603.636 77.792 603.636 77.792Q603.636 79.5685 603.636 81.4852Q603.636 83.402 603.636 85.272Q603.636 85.272 600.223 85.272Q596.811 85.272 591.434 85.272Q586.058 85.272 580.074 85.272Q574.09 85.272 568.714 85.272Q563.338 85.272 559.925 85.272Q556.512 85.272 556.512 85.272Q556.512 85.272 556.512 85.272Q556.512 85.272 556.512 85.272Q556.512 85.272 556.512 85.272Q556.512 85.272 556.512 85.272Q556.512 85.272 556.512 85.272Q556.512 85.272 556.512 85.272Q556.512 85.272 556.512 85.272Q556.512 85.272 556.512 85.272Q556.512 85.272 556.512 85.272Q556.512 85.272 556.512 85.272Q556.512 85.272 556.512 85.272Q556.512 85.272 556.512 85.272Q556.512 85.272 556.512 85.272Q556.512 85.272 556.512 88.4977Q556.512 91.7235 556.512 96.8193Q556.512 101.915 556.512 107.618Q556.512 113.322 556.512 118.418Q556.512 123.514 556.512 126.739Q556.512 129.965 556.512 129.965L549.032 129.965ZM599.335 162.129Q599.055 162.129 598.914 162.129Q598.774 162.129 598.681 162.036Q598.587 161.942 598.587 161.802Q598.587 161.661 598.587 161.381Q598.587 161.381 598.587 158.482Q598.587 155.584 598.587 151.049Q598.587 146.515 598.587 141.372Q598.587 136.23 598.587 131.695Q598.587 127.16 598.587 124.262Q598.587 121.363 598.587 121.363Q598.587 120.989 598.634 120.849Q598.681 120.709 598.821 120.662Q598.961 120.615 599.335 120.615Q599.335 120.615 600.831 120.615Q602.327 120.615 603.823 120.615Q605.319 120.615 605.319 120.615Q605.693 120.615 605.833 120.662Q605.974 120.709 606.02 120.849Q606.067 120.989 606.067 121.363Q606.067 121.363 606.067 124.262Q606.067 127.16 606.067 131.695Q606.067 136.23 606.067 141.372Q606.067 146.515 606.067 151.049Q606.067 155.584 606.067 158.482Q606.067 161.381 606.067 161.381Q606.067 161.661 606.067 161.802Q606.067 161.942 605.974 162.036Q605.88 162.129 605.74 162.129Q605.6 162.129 605.319 162.129Q605.319 162.129 603.823 162.129Q602.327 162.129 600.831 162.129Q599.335 162.129 599.335 162.129ZM754.732 110.891L747.252 110.891Q747.252 110.891 747.252 107.665Q747.252 104.44 747.252 99.3438Q747.252 94.248 747.252 88.5445Q747.252 82.841 747.252 77.7453Q747.252 72.6495 747.252 69.4238Q747.252 66.198 747.252 66.198Q747.252 66.198 747.252 66.198Q747.252 66.198 747.252 66.198Q747.252 66.198 747.252 66.198Q747.252 66.198 747.252 66.198Q747.252 66.198 747.252 66.198Q747.252 66.198 747.252 66.198Q747.252 66.198 747.252 66.198Q747.252 66.198 747.252 66.198Q747.252 66.198 747.252 66.198Q747.252 66.198 747.252 66.198Q747.252 66.198 747.252 66.198Q747.252 66.198 747.252 66.198Q747.252 66.198 747.252 66.198Q747.252 66.198 743.839 66.198Q740.427 66.198 735.05 66.198Q729.674 66.198 723.69 66.198Q717.706 66.198 712.33 66.198Q706.953 66.198 703.541 66.198Q700.128 66.198 700.128 66.198Q700.128 64.328 700.128 62.4112Q700.128 60.4945 700.128 58.718Q700.128 58.718 704.055 58.718Q707.982 58.718 714.2 58.718Q720.417 58.718 727.43 58.718Q734.443 58.718 740.66 58.718Q746.878 58.718 750.805 58.718Q754.732 58.718 754.732 58.718Q754.732 58.718 754.732 58.718Q754.732 58.718 754.732 58.718Q754.732 58.718 754.732 58.718Q754.732 58.718 754.732 58.718Q754.732 58.718 754.732 62.5048Q754.732 66.2915 754.732 72.2288Q754.732 78.166 754.732 84.8045Q754.732 91.443 754.732 97.3802Q754.732 103.317 754.732 107.104Q754.732 110.891 754.732 110.891ZM648.142 110.891Q648.142 110.891 648.142 107.104Q648.142 103.317 648.142 97.3802Q648.142 91.443 648.142 84.8045Q648.142 78.166 648.142 72.2288Q648.142 66.2915 648.142 62.5048Q648.142 58.718 648.142 58.718Q648.142 58.718 652.069 58.718Q655.996 58.718 662.214 58.718Q668.432 58.718 675.444 58.718Q682.457 58.718 688.674 58.718Q694.892 58.718 698.819 58.718Q702.746 58.718 702.746 58.718Q702.746 60.4945 702.746 62.4112Q702.746 64.328 702.746 66.198Q702.746 66.198 699.333 66.198Q695.921 66.198 690.544 66.198Q685.168 66.198 679.184 66.198Q673.2 66.198 667.824 66.198Q662.448 66.198 659.035 66.198Q655.622 66.198 655.622 66.198Q655.622 66.198 655.622 69.4238Q655.622 72.6495 655.622 77.7453Q655.622 82.841 655.622 88.5445Q655.622 94.248 655.622 99.3438Q655.622 104.44 655.622 107.665Q655.622 110.891 655.622 110.891L648.142 110.891ZM754.732 168.3Q754.732 168.3 754.732 168.3Q754.732 168.3 754.732 168.3Q746.878 168.3 739.725 168.3Q732.573 168.3 725.841 168.3Q719.109 168.3 712.61 168.3Q706.112 168.3 699.567 168.3Q699.567 168.3 699.567 168.3Q699.567 168.3 699.567 168.3Q699.567 168.3 699.567 168.3Q699.567 168.3 699.567 168.3Q699.567 168.3 699.567 168.3Q699.567 166.43 699.567 164.513Q699.567 162.596 699.567 160.82Q699.567 160.82 702.98 160.82Q706.393 160.82 710.88 160.82Q715.369 160.82 718.781 160.82Q722.194 160.82 722.194 160.82Q722.194 160.82 722.194 160.82Q722.194 160.82 722.194 160.82Q722.194 160.82 722.194 160.82Q722.194 160.82 722.194 160.82Q722.194 160.82 722.194 160.82Q722.194 160.82 722.194 160.82Q722.194 160.82 722.194 160.82Q722.194 160.82 722.194 160.82Q722.194 160.82 722.194 160.82Q722.194 160.82 722.194 160.82Q722.194 160.82 722.194 160.82Q722.194 160.82 722.194 160.82Q721.82 155.397 721.446 149.974Q721.072 144.551 720.745 139.081Q720.418 133.612 720.044 128.189Q719.669 122.766 719.342 117.296Q719.015 111.826 718.641 106.403Q718.267 100.98 717.893 95.557Q717.893 95.557 718.781 95.557Q719.669 95.557 720.558 95.557Q721.446 95.557 721.446 95.557Q721.446 95.557 722.334 95.557Q723.223 95.557 724.111 95.557Q724.999 95.557 724.999 95.557Q724.999 95.557 725.186 97.5672Q725.373 99.5775 725.747 102.85Q726.121 106.123 726.495 110.049Q726.869 113.977 727.337 117.81Q727.804 121.643 728.178 124.729Q729.113 124.729 730.188 124.729Q731.264 124.729 732.479 124.729Q733.695 124.729 735.004 124.729Q736.313 124.729 737.715 124.729Q739.117 124.729 740.427 124.729Q741.736 124.729 742.951 124.729Q744.167 124.729 745.242 124.729Q746.317 124.729 747.252 124.729Q747.252 120.989 747.252 117.296Q747.252 113.603 747.252 109.956Q747.252 106.31 747.252 102.616Q747.252 98.923 747.252 95.183L754.732 95.183L754.732 168.3ZM648.142 168.3L648.142 95.183L655.622 95.183Q655.622 98.923 655.622 102.616Q655.622 106.31 655.622 109.956Q655.622 113.603 655.622 117.296Q655.622 120.989 655.622 124.729Q656.557 124.729 657.632 124.729Q658.708 124.729 659.923 124.729Q661.139 124.729 662.448 124.729Q663.757 124.729 665.159 124.729Q666.562 124.729 667.871 124.729Q669.18 124.729 670.395 124.729Q671.611 124.729 672.686 124.729Q673.761 124.729 674.696 124.729Q675.07 121.644 675.538 117.81Q676.005 113.977 676.379 110.049Q676.753 106.122 677.127 102.85Q677.501 99.5775 677.688 97.5672Q677.875 95.557 677.875 95.557Q677.875 95.557 678.763 95.557Q679.651 95.557 680.54 95.557Q681.428 95.557 681.428 95.557Q681.428 95.557 681.428 95.557Q681.428 95.557 681.428 95.557Q681.428 95.557 682.316 95.557Q683.205 95.557 684.093 95.557Q684.981 95.557 684.981 95.557Q684.607 100.98 684.233 106.403Q683.859 111.826 683.532 117.296Q683.205 122.766 682.831 128.189Q682.457 133.611 682.129 139.081Q681.802 144.551 681.428 149.974Q681.054 155.397 680.68 160.82Q680.68 160.82 684.093 160.82Q687.505 160.82 691.994 160.82Q696.482 160.82 699.894 160.82Q703.307 160.82 703.307 160.82Q703.307 162.596 703.307 164.513Q703.307 166.43 703.307 168.3Q703.307 168.3 703.307 168.3Q703.307 168.3 703.307 168.3Q703.307 168.3 703.307 168.3Q703.307 168.3 703.307 168.3Q703.307 168.3 703.307 168.3Q696.762 168.3 690.264 168.3Q683.766 168.3 677.034 168.3Q670.302 168.3 663.149 168.3Q655.996 168.3 648.142 168.3ZM800.734 168.3Q800.36 168.3 796.339 168.3Q792.319 168.3 786.242 168.3Q780.164 168.3 773.432 168.3Q766.7 168.3 760.716 168.3Q754.732 168.3 750.992 168.3Q747.252 168.3 747.252 168.3L747.252 120.054L754.732 120.054L754.732 160.82Q754.732 160.82 758.005 160.82Q761.277 160.82 765.578 160.82Q769.879 160.82 773.151 160.82Q776.424 160.82 776.424 160.82Q776.424 160.82 779.697 160.82Q782.969 160.82 787.27 160.82Q791.571 160.82 794.844 160.82Q798.116 160.82 798.116 160.82Q798.116 160.82 798.116 160.353Q798.116 159.885 798.116 157.548Q798.116 155.21 798.116 149.787Q798.116 144.364 798.116 134.453Q798.116 134.453 802.277 134.453Q806.438 134.453 812.562 134.453Q818.686 134.453 824.81 134.453Q830.935 134.453 835.095 134.453Q839.256 134.453 839.256 134.453Q839.256 134.453 839.256 134.453Q839.256 134.453 839.256 134.453Q839.256 134.453 839.256 134.453Q839.256 134.453 839.256 134.453Q839.256 134.453 839.256 134.453Q839.256 134.453 839.256 131.461Q839.256 128.469 839.256 124.075Q839.256 119.68 839.256 115.285Q839.256 110.891 839.256 107.899Q839.256 104.907 839.256 104.907Q839.256 104.907 839.256 104.907Q839.256 104.907 839.256 104.907Q839.256 104.907 839.256 104.907Q839.256 104.907 839.256 104.907Q839.256 104.907 839.256 104.907L846.736 104.907L846.736 168.3Q846.736 168.3 843.51 168.3Q840.284 168.3 835.142 168.3Q830 168.3 824.156 168.3Q818.312 168.3 813.076 168.3Q807.84 168.3 804.427 168.3Q801.015 168.3 800.734 168.3ZM747.252 124.355Q747.252 124.355 747.252 120.989Q747.252 117.623 747.252 112.34Q747.252 107.057 747.252 101.074Q747.252 95.0895 747.252 89.8067Q747.252 84.524 747.252 81.158Q747.252 77.792 747.252 77.792Q747.252 77.792 750.945 77.792Q754.638 77.792 760.529 77.792Q766.419 77.792 772.964 77.792Q779.51 77.792 785.4 77.792Q791.291 77.792 794.984 77.792Q798.677 77.792 798.677 77.792Q798.677 77.792 798.677 77.792Q798.677 77.792 798.677 77.792Q798.677 77.792 798.677 77.792Q798.677 77.792 798.677 77.792Q798.677 77.792 798.677 77.792Q798.677 77.792 798.677 77.792Q798.677 77.792 798.677 77.792Q798.677 77.792 798.677 77.792Q798.677 77.792 798.677 77.792Q798.677 78.8205 798.677 81.345Q798.677 83.8695 798.677 87.142Q798.677 90.4145 798.677 93.874Q798.677 97.3335 798.677 100.372Q798.677 103.411 798.677 105.281Q798.677 105.281 797.134 102.242Q795.591 99.2035 793.628 95.2765Q791.664 91.3495 790.122 88.3108Q788.579 85.272 788.579 85.272Q788.579 85.272 785.166 85.272Q781.753 85.272 776.705 85.272Q771.656 85.272 766.607 85.272Q761.557 85.272 758.145 85.272Q754.732 85.272 754.732 85.272Q754.732 85.272 754.732 85.272Q754.732 85.272 754.732 85.272Q754.732 85.272 754.732 85.272Q754.732 85.272 754.732 85.272Q754.732 85.272 754.732 85.272Q754.732 85.272 754.732 85.272Q754.732 85.272 754.732 85.272Q754.732 85.272 754.732 85.272Q754.732 85.272 754.732 85.272Q754.732 85.272 754.732 85.272Q754.732 85.272 754.732 85.272Q754.732 85.272 754.732 89.199Q754.732 93.126 754.732 98.9697Q754.732 104.813 754.732 110.657Q754.732 116.501 754.732 120.428Q754.732 124.355 754.732 124.355L747.252 124.355ZM846.736 115.379L839.256 115.379Q839.256 115.379 839.256 115.379Q839.256 115.379 839.256 115.379Q839.256 115.379 839.256 115.379Q839.256 115.379 839.256 115.379Q839.256 115.379 839.256 115.099Q839.256 114.818 839.256 113.462Q839.256 112.107 839.256 108.927Q839.256 105.749 839.256 100.045Q839.256 94.3415 839.256 85.272Q839.256 85.272 839.256 85.272Q839.256 85.272 839.256 85.272Q839.256 85.272 839.256 85.272Q839.256 85.272 839.256 85.272Q839.256 85.272 837.059 85.272Q834.862 85.272 831.449 85.272Q828.036 85.272 824.203 85.272Q820.369 85.272 816.956 85.272Q813.544 85.272 811.346 85.272Q809.149 85.272 809.149 85.272Q809.149 85.272 807.56 88.3108Q805.97 91.3495 803.913 95.2765Q801.856 99.2035 800.266 102.242Q798.677 105.281 798.677 105.281Q798.677 105.281 798.677 105.281Q798.677 105.281 798.677 105.281Q798.677 105.281 798.677 105.281Q798.677 105.281 798.256 102.242Q797.836 99.2035 797.321 95.2765Q796.807 91.3495 796.386 88.3108Q795.966 85.272 795.966 85.272Q795.966 85.272 795.966 84.524Q795.966 83.776 795.966 82.654Q795.966 81.532 795.966 80.41Q795.966 79.288 795.966 78.54Q795.966 77.792 795.966 77.792Q795.966 77.792 795.966 77.792Q795.966 77.792 795.966 77.792Q795.966 77.792 795.966 77.792Q795.966 77.792 795.966 77.792Q795.966 77.792 799.612 77.792Q803.258 77.792 809.055 77.792Q814.853 77.792 821.351 77.792Q827.849 77.792 833.646 77.792Q839.443 77.792 843.089 77.792Q846.736 77.792 846.736 77.792Q846.736 77.792 846.736 80.5035Q846.736 83.215 846.736 87.516Q846.736 91.817 846.736 96.5855Q846.736 101.354 846.736 105.655Q846.736 109.956 846.736 112.667Q846.736 115.379 846.736 115.379ZM839.256 129.965Q839.256 125.664 839.256 120.241Q839.256 114.818 839.256 108.927Q839.256 103.037 839.256 97.5205Q839.256 92.004 839.256 87.516Q839.256 83.028 839.256 80.41Q839.256 77.792 839.256 77.792Q839.256 77.792 842.949 77.792Q846.643 77.792 852.393 77.792Q858.143 77.792 864.688 77.792Q871.233 77.792 876.983 77.792Q882.734 77.792 886.427 77.792Q890.12 77.792 890.12 77.792Q890.12 79.5685 890.12 81.4852Q890.12 83.402 890.12 85.272Q889.653 85.272 887.035 85.272Q884.417 85.272 880.63 85.272Q876.843 85.272 872.963 85.272Q869.083 85.272 866.044 85.272Q863.005 85.272 861.883 85.272Q861.883 85.272 861.883 85.272Q861.883 85.272 861.883 85.272Q861.883 85.272 861.883 85.272Q861.883 85.272 861.883 85.272Q861.603 85.272 860.013 86.6745Q858.424 88.077 856.18 90.2275Q853.936 92.378 851.785 94.5752Q849.635 96.7725 848.185 98.362Q846.736 99.9515 846.736 100.232L846.736 129.965L839.256 129.965ZM839.256 101.541L846.736 101.541Q846.736 106.684 846.736 109.769Q846.736 112.854 846.736 115.706Q846.736 118.558 846.736 123.046Q846.736 127.721 846.736 130.152Q846.736 132.583 846.736 134.219Q846.736 135.855 846.736 138.053Q846.736 140.25 846.736 144.551L839.256 144.551L839.256 101.541ZM839.256 116.127L846.736 116.127L846.736 145.86Q846.736 146.141 848.185 147.73Q849.635 149.32 851.785 151.517Q853.936 153.714 856.18 155.865Q858.424 158.015 860.013 159.417Q861.603 160.82 861.883 160.82Q863.005 160.82 866.044 160.82Q869.083 160.82 872.963 160.82Q876.843 160.82 880.63 160.82Q884.417 160.82 887.035 160.82Q889.653 160.82 890.12 160.82Q890.12 162.596 890.12 164.513Q890.12 166.43 890.12 168.3Q890.12 168.3 886.427 168.3Q882.734 168.3 876.983 168.3Q871.233 168.3 864.688 168.3Q858.143 168.3 852.393 168.3Q846.643 168.3 842.949 168.3Q839.256 168.3 839.256 168.3C839.256 168.3 839.256 167.427 839.256 165.682Q839.256 163.064 839.256 158.576Q839.256 154.088 839.256 148.572Q839.256 143.055 839.256 137.211Q839.256 131.368 839.256 125.851Q839.256 120.335 839.256 116.127ZM938.74 129.965L931.26 129.965L931.26 100.232Q931.26 99.9515 929.811 98.362Q928.362 96.7725 926.211 94.5752Q924.061 92.378 921.817 90.2275Q919.573 88.077 917.983 86.6745Q916.394 85.272 916.113 85.272Q916.113 85.272 916.113 85.272Q916.113 85.272 916.113 85.272Q916.113 85.272 916.113 85.272Q916.113 85.272 916.113 85.272Q914.991 85.272 911.952 85.272Q908.914 85.272 905.033 85.272Q901.153 85.272 897.366 85.272Q893.58 85.272 890.962 85.272Q888.344 85.272 887.876 85.272Q887.876 83.402 887.876 81.4852Q887.876 79.5685 887.876 77.792Q887.876 77.792 891.569 77.792Q895.263 77.792 901.013 77.792Q906.763 77.792 913.308 77.792Q919.853 77.792 925.603 77.792Q931.354 77.792 935.047 77.792Q938.74 77.792 938.74 77.792Q938.74 77.792 938.74 80.41Q938.74 83.028 938.74 87.516Q938.74 92.004 938.74 97.5205Q938.74 103.037 938.74 108.927Q938.74 114.818 938.74 120.241Q938.74 125.664 938.74 129.965ZM938.74 121.737Q938.74 121.737 938.74 125.103Q938.74 128.469 938.74 133.752Q938.74 139.035 938.74 145.018Q938.74 151.003 938.74 156.285Q938.74 161.568 938.74 164.934C938.74 167.178 938.74 168.3 938.74 168.3Q938.74 168.3 935.047 168.3Q931.354 168.3 925.603 168.3Q919.853 168.3 913.308 168.3Q906.763 168.3 901.013 168.3Q895.263 168.3 891.569 168.3Q887.876 168.3 887.876 168.3Q887.876 166.43 887.876 164.513Q887.876 162.596 887.876 160.82Q887.876 160.82 892.271 160.82Q896.665 160.82 903.117 160.82Q909.568 160.82 916.02 160.82Q922.471 160.82 926.866 160.82Q931.26 160.82 931.26 160.82Q931.26 160.82 931.26 160.82Q931.26 160.82 931.26 160.82Q931.26 160.82 931.26 160.82Q931.26 160.82 931.26 160.82Q931.26 160.82 931.26 160.82Q931.26 160.82 931.26 160.82Q931.26 160.82 931.26 160.82Q931.26 160.82 931.26 160.82Q931.26 160.82 931.26 160.82Q931.26 160.82 931.26 160.82Q931.26 160.82 931.26 160.82Q931.26 160.82 931.26 156.893Q931.26 152.966 931.26 147.122Q931.26 141.279 931.26 135.435Q931.26 129.591 931.26 125.664Q931.26 121.737 931.26 121.737L938.74 121.737ZM900.966 108.273Q900.966 108.273 900.966 108.273Q900.966 108.273 900.966 108.273Q900.966 108.273 900.966 108.273Q900.966 108.273 900.966 108.273Q900.966 108.273 900.966 108.273Q900.966 108.273 900.966 108.273Q900.966 108.273 900.966 108.273Q901.527 108.273 901.621 108.367Q901.714 108.46 901.714 109.021Q901.714 110.049 901.714 111.031Q901.714 112.013 901.714 112.995Q901.714 113.977 901.714 115.005Q901.714 115.566 901.621 115.66Q901.527 115.753 900.966 115.753Q900.966 115.753 897.46 115.753Q893.954 115.753 889.372 115.753Q884.791 115.753 881.284 115.753Q877.778 115.753 877.778 115.753Q877.217 115.753 877.124 115.66Q877.03 115.566 877.03 115.005Q877.03 113.977 877.03 112.995Q877.03 112.013 877.03 111.031Q877.03 110.049 877.03 109.021Q877.03 108.46 877.124 108.367Q877.217 108.273 877.778 108.273Q877.778 108.273 877.778 108.273Q877.778 108.273 877.778 108.273Q877.778 108.273 881.284 108.273Q884.791 108.273 889.372 108.273Q893.954 108.273 897.46 108.273Q900.966 108.273 900.966 108.273ZM934.813 137.819L931.26 137.819Q931.26 137.819 931.26 137.165Q931.26 136.51 931.26 135.855Q931.26 135.201 931.26 135.201Q931.26 135.201 927.473 135.762Q923.687 136.323 918.123 137.118Q912.56 137.913 906.997 138.707Q901.434 139.502 897.647 140.063Q893.86 140.624 893.86 140.624Q893.86 140.624 893.813 140.25Q893.767 139.876 893.626 139.081Q893.486 138.286 893.299 137.071Q893.112 135.855 892.972 135.014Q892.832 134.173 892.785 133.752Q892.738 133.331 892.738 133.331Q892.738 133.331 896.618 132.77Q900.499 132.209 906.249 131.367Q911.999 130.526 917.749 129.685Q923.5 128.843 927.38 128.282Q931.26 127.721 931.26 127.721Q931.26 127.721 931.26 126.833Q931.26 125.945 931.26 125.056Q931.26 124.168 931.26 124.168L934.813 124.168L934.813 137.819ZM980.815 128.469Q980.815 128.469 981.376 128.469Q981.937 128.469 982.779 128.469Q983.62 128.469 984.555 128.469Q985.584 128.469 986.472 128.469Q987.36 128.469 987.921 128.469Q988.482 128.469 988.482 128.469Q988.482 129.965 988.482 133.658Q988.482 137.352 988.482 141.933Q988.482 146.515 988.482 150.862Q988.482 155.21 988.482 158.015Q988.482 160.82 988.482 160.82Q988.482 160.82 991.521 160.82Q994.56 160.82 999.328 160.82Q1004.1 160.82 1009.43 160.82Q1014.76 160.82 1019.52 160.82Q1024.29 160.82 1027.33 160.82Q1030.37 160.82 1030.37 160.82Q1030.37 160.82 1030.37 160.82Q1030.37 160.82 1030.37 160.82Q1030.37 160.82 1030.37 160.82Q1030.37 160.82 1030.37 157.875Q1030.37 154.93 1030.37 151.517Q1030.37 148.104 1030.37 146.795Q1030.37 145.767 1030.37 144.785Q1030.37 143.803 1030.37 142.354Q1030.37 140.905 1030.37 138.661Q1030.37 136.417 1030.37 132.957Q1030.37 132.957 1030.37 132.957Q1030.37 132.957 1030.37 132.957Q1030.37 132.957 1030.37 132.957Q1030.37 132.957 1030.37 130.993Q1030.37 129.03 1030.37 126.412Q1030.37 123.794 1030.37 121.831Q1030.37 119.867 1030.37 119.867L1037.85 119.867Q1037.85 124.449 1037.85 130.012Q1037.85 135.575 1037.85 141.793Q1037.85 148.01 1037.85 154.696Q1037.85 161.381 1037.85 168.3Q1037.85 168.3 1037.85 168.3Q1037.85 168.3 1037.85 168.3Q1037.85 168.3 1037.85 168.3Q1037.85 168.3 1037.85 168.3Q1037.85 168.3 1037.85 168.3Q1037.85 168.3 1037.85 168.3Q1037.85 168.3 1037.85 168.3Q1037.85 168.3 1037.85 168.3Q1037.85 168.3 1033.83 168.3Q1029.81 168.3 1023.45 168.3Q1017.09 168.3 1009.89 168.3Q1002.69 168.3 996.196 168.3Q989.698 168.3 985.443 168.3Q981.189 168.3 980.815 168.3C980.815 168.3 980.815 167.926 980.815 167.178Q980.815 166.056 980.815 164.56Q980.815 163.064 980.815 161.942Q980.815 160.82 980.815 160.82Q980.815 157.08 980.815 153.387Q980.815 149.693 980.815 146.187Q980.815 142.681 980.815 139.502Q980.815 136.323 980.815 133.518Q980.815 130.713 980.815 128.469ZM931.26 116.127L938.74 116.127Q938.74 116.127 938.74 119.353Q938.74 122.579 938.74 127.674Q938.74 132.77 938.74 138.474Q938.74 144.177 938.74 149.273Q938.74 154.368 938.74 157.594Q938.74 160.82 938.74 160.82Q938.74 160.82 942.153 160.82Q945.566 160.82 950.942 160.82Q956.318 160.82 962.302 160.82Q968.286 160.82 973.662 160.82Q979.039 160.82 982.451 160.82Q985.864 160.82 985.864 160.82Q985.864 162.596 985.864 164.513Q985.864 166.43 985.864 168.3Q985.864 168.3 981.937 168.3Q978.01 168.3 971.792 168.3Q965.575 168.3 958.562 168.3Q951.55 168.3 945.332 168.3Q939.114 168.3 935.187 168.3Q931.26 168.3 931.26 168.3Q931.26 168.3 931.26 164.513Q931.26 160.727 931.26 154.789Q931.26 148.852 931.26 142.214Q931.26 135.575 931.26 129.638Q931.26 123.701 931.26 119.914Q931.26 116.127 931.26 116.127ZM931.26 114.444L931.26 58.718Q931.26 58.718 934.159 58.718Q937.057 58.718 941.405 58.718Q945.753 58.718 950.147 58.718Q954.542 58.718 957.627 58.718Q960.713 58.718 960.993 58.718Q961.274 58.718 964.079 58.718Q966.884 58.718 970.951 58.718Q975.018 58.718 978.992 58.718Q982.966 58.718 985.63 58.718Q988.295 58.718 988.295 58.718L988.295 77.792Q992.222 77.792 996.149 77.792Q1000.08 77.792 1004 77.792Q1007.93 77.792 1011.86 77.792Q1011.86 77.792 1014.48 77.792Q1017.09 77.792 1020.97 77.792Q1024.85 77.792 1028.73 77.792Q1032.61 77.792 1035.23 77.792Q1037.85 77.792 1037.85 77.792Q1037.85 77.792 1037.85 77.792Q1037.85 77.792 1037.85 77.792Q1037.85 77.792 1037.85 77.792Q1037.85 77.792 1037.85 77.792L1037.85 114.631L1030.37 114.631L1030.37 85.272Q1030.37 85.272 1030.37 85.272Q1030.37 85.272 1030.37 85.272Q1030.37 85.272 1030.37 85.272Q1030.37 85.272 1030.37 85.272Q1030.37 85.272 1030.37 85.272Q1030.37 85.272 1030.37 85.272Q1030.37 85.272 1030.37 85.272Q1030.37 85.272 1027.33 85.272Q1024.29 85.272 1019.52 85.272Q1014.76 85.272 1009.38 85.272Q1004 85.272 999.188 85.272Q994.373 85.272 991.334 85.272Q988.295 85.272 988.295 85.272Q988.295 85.272 988.295 85.272Q988.295 85.272 988.295 85.272Q988.295 85.272 988.295 85.272Q988.295 85.272 988.295 87.6563Q988.295 90.0405 988.295 93.5935Q988.295 97.1465 988.295 100.7Q988.295 104.252 988.295 106.637Q988.295 109.021 988.295 109.021Q988.295 109.021 986.425 109.021Q984.555 109.021 984.555 109.021Q984.555 109.021 982.685 109.021Q980.815 109.021 980.815 109.021Q980.815 109.021 980.815 104.673Q980.815 100.326 980.815 93.9675Q980.815 87.6095 980.815 81.2515Q980.815 74.8935 980.815 70.5457Q980.815 66.198 980.815 66.198Q980.815 66.198 977.823 66.198Q974.831 66.198 970.904 66.198Q966.977 66.198 963.985 66.198Q960.993 66.198 960.993 66.198Q960.993 66.198 957.627 66.198Q954.261 66.198 949.867 66.198Q945.472 66.198 942.106 66.198Q938.74 66.198 938.74 66.198L938.74 114.444L931.26 114.444ZM1017.28 121.176Q1017.28 121.176 1017.28 121.176Q1017.28 121.176 1017.28 121.176Q1017.28 121.176 1019.24 119.587Q1021.21 117.997 1023.83 115.846Q1026.44 113.696 1028.41 112.107Q1030.37 110.517 1030.37 110.517L1030.37 101.167L1033.92 101.167L1037.85 101.167Q1037.85 101.167 1037.85 105.188Q1037.85 109.208 1037.85 115.192Q1037.85 121.176 1037.85 127.16Q1037.85 133.144 1037.85 137.165Q1037.85 141.185 1037.85 141.185L1033.92 141.185L1030.37 141.185L1030.37 131.835Q1030.37 131.835 1028.41 130.245Q1026.44 128.656 1023.83 126.506Q1021.21 124.355 1019.24 122.766Q1017.28 121.176 1017.28 121.176Q1017.28 121.176 1017.28 121.176Q1017.28 121.176 1017.28 121.176ZM931.26 101.354L938.74 101.354Q938.74 106.497 938.74 109.582Q938.74 112.667 938.74 115.519Q938.74 118.371 938.74 122.859Q938.74 122.859 938.74 122.859Q938.74 122.859 938.74 122.859Q938.74 122.859 938.74 122.859Q938.74 122.859 938.74 122.859Q938.74 127.534 938.74 129.965Q938.74 132.396 938.74 134.032Q938.74 135.669 938.74 137.866Q938.74 140.063 938.74 144.364L931.26 144.364L931.26 101.354ZM1129.85 116.127Q1129.85 120.335 1129.85 125.851Q1129.85 131.368 1129.85 137.211Q1129.85 143.055 1129.85 148.572Q1129.85 154.088 1129.85 158.576Q1129.85 163.064 1129.85 165.682C1129.85 167.427 1129.85 168.3 1129.85 168.3Q1129.85 168.3 1126.16 168.3Q1122.47 168.3 1116.72 168.3Q1110.97 168.3 1104.42 168.3Q1097.88 168.3 1092.13 168.3Q1086.38 168.3 1082.68 168.3Q1078.99 168.3 1078.99 168.3Q1078.99 166.43 1078.99 164.513Q1078.99 162.596 1078.99 160.82Q1079.46 160.82 1082.08 160.82Q1084.69 160.82 1088.48 160.82Q1092.27 160.82 1096.15 160.82Q1100.03 160.82 1103.07 160.82Q1106.11 160.82 1107.23 160.82Q1107.51 160.82 1109.1 159.417Q1110.69 158.015 1112.93 155.865Q1115.17 153.714 1117.33 151.517Q1119.48 149.32 1120.92 147.73Q1122.37 146.141 1122.37 145.86L1122.37 116.127L1129.85 116.127ZM1030.37 129.965Q1030.37 125.664 1030.37 120.241Q1030.37 114.818 1030.37 108.927Q1030.37 103.037 1030.37 97.5205Q1030.37 92.004 1030.37 87.516Q1030.37 83.028 1030.37 80.41Q1030.37 77.792 1030.37 77.792Q1030.37 77.792 1034.06 77.792Q1037.76 77.792 1043.51 77.792Q1049.26 77.792 1055.8 77.792Q1062.35 77.792 1068.1 77.792Q1073.85 77.792 1077.54 77.792Q1081.23 77.792 1081.23 77.792Q1081.23 79.5685 1081.23 81.4852Q1081.23 83.402 1081.23 85.272Q1080.77 85.272 1078.15 85.272Q1075.53 85.272 1071.74 85.272Q1067.96 85.272 1064.08 85.272Q1060.2 85.272 1057.16 85.272Q1054.12 85.272 1053 85.272Q1053 85.272 1053 85.272Q1053 85.272 1053 85.272Q1053 85.272 1053 85.272Q1053 85.272 1053 85.272Q1052.72 85.272 1051.13 86.6745Q1049.54 88.077 1047.29 90.2275Q1045.05 92.378 1042.9 94.5752Q1040.75 96.7725 1039.3 98.362Q1037.85 99.9515 1037.85 100.232L1037.85 129.965L1030.37 129.965ZM1129.85 124.355L1122.37 124.355Q1122.37 124.355 1122.37 120.428Q1122.37 116.501 1122.37 110.657Q1122.37 104.814 1122.37 98.9697Q1122.37 93.126 1122.37 89.199Q1122.37 85.272 1122.37 85.272Q1122.37 85.272 1122.37 85.272Q1122.37 85.272 1122.37 85.272Q1122.37 85.272 1122.37 85.272Q1122.37 85.272 1122.37 85.272Q1122.37 85.272 1122.37 85.272Q1122.37 85.272 1122.37 85.272Q1122.37 85.272 1122.37 85.272Q1122.37 85.272 1122.37 85.272Q1122.37 85.272 1122.37 85.272Q1122.37 85.272 1122.37 85.272Q1122.37 85.272 1122.37 85.272Q1122.37 85.272 1117.98 85.272Q1113.59 85.272 1107.13 85.272Q1100.68 85.272 1094.23 85.272Q1087.78 85.272 1083.38 85.272Q1078.99 85.272 1078.99 85.272Q1078.99 83.402 1078.99 81.4852Q1078.99 79.5685 1078.99 77.792Q1078.99 77.792 1082.68 77.792Q1086.38 77.792 1092.13 77.792Q1097.88 77.792 1104.42 77.792Q1110.97 77.792 1116.72 77.792Q1122.47 77.792 1126.16 77.792Q1129.85 77.792 1129.85 77.792Q1129.85 77.792 1129.85 81.158Q1129.85 84.524 1129.85 89.8067Q1129.85 95.0895 1129.85 101.074Q1129.85 107.057 1129.85 112.34Q1129.85 117.623 1129.85 120.989Q1129.85 124.355 1129.85 124.355ZM1030.37 121.737L1037.85 121.737Q1037.85 121.737 1037.85 125.664Q1037.85 129.591 1037.85 135.435Q1037.85 141.279 1037.85 147.122Q1037.85 152.966 1037.85 156.893Q1037.85 160.82 1037.85 160.82Q1037.85 160.82 1042.24 160.82Q1046.64 160.82 1053.09 160.82Q1059.54 160.82 1065.99 160.82Q1072.45 160.82 1076.84 160.82Q1081.23 160.82 1081.23 160.82Q1081.23 162.596 1081.23 164.513Q1081.23 166.43 1081.23 168.3Q1081.23 168.3 1077.54 168.3Q1073.85 168.3 1068.1 168.3Q1062.35 168.3 1055.8 168.3Q1049.26 168.3 1043.51 168.3Q1037.76 168.3 1034.06 168.3Q1030.37 168.3 1030.37 168.3C1030.37 168.3 1030.37 167.178 1030.37 164.934Q1030.37 161.568 1030.37 156.285Q1030.37 151.003 1030.37 145.018Q1030.37 139.035 1030.37 133.752Q1030.37 128.469 1030.37 125.103Q1030.37 121.737 1030.37 121.737ZM1034.11 136.51L1034.11 122.859L1037.66 122.859Q1037.66 122.859 1037.66 123.747Q1037.66 124.635 1037.66 125.524Q1037.66 126.412 1037.66 126.412Q1037.66 126.412 1041.54 126.973Q1045.42 127.534 1051.17 128.376Q1056.92 129.217 1062.67 130.059Q1068.42 130.9 1072.3 131.461Q1076.19 132.022 1076.19 132.022Q1076.19 132.022 1076.14 132.443Q1076.09 132.864 1075.95 133.705Q1075.81 134.547 1075.62 135.762Q1075.44 136.977 1075.3 137.772Q1075.16 138.567 1075.11 138.941Q1075.06 139.315 1075.06 139.315Q1075.06 139.315 1071.28 138.754Q1067.49 138.193 1061.93 137.398Q1056.36 136.604 1050.8 135.809Q1045.24 135.014 1041.45 134.453Q1037.66 133.892 1037.66 133.892Q1037.66 133.892 1037.66 134.547Q1037.66 135.201 1037.66 135.855Q1037.66 136.51 1037.66 136.51L1034.11 136.51ZM1126.3 111.265L1126.3 124.916L1122.75 124.916Q1122.75 124.916 1122.75 124.028Q1122.75 123.14 1122.75 122.251Q1122.75 121.363 1122.75 121.363Q1122.75 121.363 1118.87 120.802Q1114.99 120.241 1109.24 119.4Q1103.49 118.558 1097.74 117.717Q1091.99 116.875 1088.11 116.314Q1084.23 115.753 1084.23 115.753Q1084.23 115.753 1084.27 115.332Q1084.32 114.911 1084.46 114.07Q1084.6 113.229 1084.79 112.013Q1084.97 110.798 1085.11 110.003Q1085.25 109.208 1085.3 108.834Q1085.35 108.46 1085.35 108.46Q1085.35 108.46 1089.13 109.021Q1092.92 109.582 1098.48 110.377Q1104.05 111.172 1109.61 111.966Q1115.17 112.761 1118.96 113.322Q1122.75 113.883 1122.75 113.883Q1122.75 113.883 1122.75 113.229Q1122.75 112.574 1122.75 111.919Q1122.75 111.265 1122.75 111.265L1126.3 111.265Z" style="fill:#D1C4E9;" />
    </g>
  </g>
</svg>